/* XPM */
static char *adfcb2fa7b0f41d6e24de1c12421a314[] = {
/* columns rows colors chars-per-pixel */
"64 64 28 1 ",
"  c None",
". c black",
"X c gray11",
"o c #231C0A",
"O c #312511",
"+ c #372914",
"@ c #3F3114",
"# c #262526",
"$ c #313131",
"% c #3F3F3F",
"& c #493317",
"* c #50381C",
"= c #5E3F1F",
"- c #654223",
"; c #704626",
": c #774D2A",
"> c #7E502C",
", c #494949",
"< c gray34",
"1 c #626262",
"2 c #6C6C6C",
"3 c gray48",
"4 c #885431",
"5 c #8C5733",
"6 c #935B38",
"7 c #9D623B",
"8 c #A4693F",
"9 c gray52",
/* pixels */
"                                                                ",
"                                                                ",
"                                                                ",
"                                                                ",
"                                                                ",
"                                                                ",
"                                                                ",
"                                                                ",
"                                                                ",
"                                                                ",
"                                                                ",
"                                                                ",
"                                                                ",
"                                                                ",
"                                                                ",
"                                                                ",
"                                                                ",
"                                                                ",
"                                                                ",
"                                                                ",
"                                                                ",
"                                                                ",
"                                                                ",
"                                                                ",
"                                                                ",
"                                                                ",
"                                                                ",
"                                                                ",
"                                                                ",
"                                                                ",
"                                                                ",
"                       1111111112222223333                      ",
"                     21,,,,,,,,,,,<<<<<11132                    ",
"                    23,$XXXX#######$$%%%%,1,1                   ",
"                    2239933222221111<<<<,,%$$                   ",
"                   44223322111<<<<,,,%%%$$$$@@                  ",
"                   :5>44:;;;----===***@@@@@@*@                  ",
"                  4:557848775>6654>-=;--&-=@@*@                 ",
"                  :5:7856877>:6654>-=;;-=*-=@*@                 ",
"                  :5:7848777>>6654>;*;;;-&-=@*%                 ",
"                  <231848776>6654>:;*;;;-&%%%%$                 ",
"                 ,1223393222211111<<<<<,,,,$$$$@                ",
"                 ,2222231111<<<<,,,,,,%%%%$$$$$@                ",
"                 :-,<1221111<<<<,,,,,,%%%%%$$$*@                ",
"                 :5:755*4>:;@---====o*@@@@&**@*@                ",
"                 :5:78858777>6544>:;*;;;-=&**@*@                ",
"                 :5:78858777>6544>:;*;;;-=&**@*@                ",
"                 :5:78858777:6544>:;*;;;-=&**@*@                ",
"                 :5:78858777:6544>:;*;;;-=&**@*@                ",
"                 :5:78858777:6544>:;*;;;-=&**@*@                ",
"                 :5:78858777:6544>:;*;;;-=&**@*@                ",
"                 25:78848777;6544>:;*;;;-=&**@%%                ",
"                 13332848777;6544>:;*;;;-=&%%%%$                ",
"                 <2223932222211111<<<<<,,,,%$$$.                ",
"                  <122321111<<<<,,,,,,%%%%%$$$$+                ",
"                  -,<<<11111<<<<,,,,,,%%%%%+++&*                ",
"                  ::;;;;;;==O==*****o****++*@*@*                ",
"                  :5:6848664-4>>>>:;*;;-=@**@*@                 ",
"                   :557:6664-:>>>>:=*;;-=@**@*@                 ",
"                   15:55:664-;>>>:;**;;-*@*@*@                  ",
"                    3935:444;-::::;*=;-=@*@@@                   ",
"                    222333322211<<<,,,%%%$$#                    ",
"                     2122111<<<<,,,,%%%$$$##                    ",
"                       ,,,,,%%%%%$$$$#####                      "
};
